<svg xmlns="http://www.w3.org/2000/svg" xmlns:xlink="http://www.w3.org/1999/xlink" width="400" zoomAndPan="magnify" viewBox="0 0 300 299.999988" height="400" preserveAspectRatio="xMidYMid meet" version="1.0"><defs><clipPath id="caf3b56645"><path d="M 67.402344 67.402344 L 232 67.402344 L 232 232.402344 L 67.402344 232.402344 Z M 67.402344 67.402344 " clip-rule="nonzero"/></clipPath><clipPath id="01ed5ea473"><path d="M 93.773438 67.191406 L 205.324219 67.191406 C 206.195312 67.191406 207.0625 67.234375 207.933594 67.320312 C 208.800781 67.402344 209.660156 67.53125 210.515625 67.699219 C 211.371094 67.871094 212.214844 68.082031 213.050781 68.335938 C 213.882812 68.585938 214.703125 68.878906 215.507812 69.214844 C 216.316406 69.546875 217.101562 69.917969 217.871094 70.328125 C 218.640625 70.738281 219.386719 71.1875 220.113281 71.667969 C 220.835938 72.152344 221.535156 72.671875 222.210938 73.222656 C 222.882812 73.773438 223.527344 74.359375 224.144531 74.972656 C 224.761719 75.589844 225.347656 76.234375 225.898438 76.90625 C 226.453125 77.578125 226.972656 78.277344 227.457031 79 C 227.941406 79.726562 228.386719 80.472656 228.796875 81.238281 C 229.210938 82.007812 229.582031 82.792969 229.914062 83.597656 C 230.25 84.402344 230.542969 85.21875 230.796875 86.050781 C 231.046875 86.886719 231.261719 87.730469 231.429688 88.582031 C 231.601562 89.4375 231.726562 90.296875 231.8125 91.164062 C 231.898438 92.027344 231.941406 92.898438 231.941406 93.765625 L 231.941406 205.820312 C 231.941406 206.6875 231.898438 207.558594 231.8125 208.425781 C 231.726562 209.289062 231.601562 210.148438 231.429688 211.003906 C 231.261719 211.855469 231.046875 212.699219 230.796875 213.535156 C 230.542969 214.367188 230.25 215.183594 229.914062 215.988281 C 229.582031 216.792969 229.210938 217.578125 228.796875 218.347656 C 228.386719 219.113281 227.941406 219.859375 227.457031 220.585938 C 226.972656 221.308594 226.453125 222.007812 225.898438 222.679688 C 225.347656 223.351562 224.761719 223.996094 224.144531 224.613281 C 223.527344 225.226562 222.882812 225.8125 222.210938 226.363281 C 221.535156 226.914062 220.835938 227.433594 220.113281 227.917969 C 219.386719 228.398438 218.640625 228.847656 217.871094 229.257812 C 217.101562 229.667969 216.316406 230.039062 215.507812 230.371094 C 214.703125 230.707031 213.882812 231 213.050781 231.25 C 212.214844 231.503906 211.371094 231.714844 210.515625 231.886719 C 209.660156 232.054688 208.800781 232.183594 207.929688 232.269531 C 207.0625 232.351562 206.195312 232.394531 205.324219 232.394531 L 93.773438 232.394531 C 92.902344 232.394531 92.03125 232.351562 91.164062 232.269531 C 90.296875 232.183594 89.433594 232.054688 88.578125 231.886719 C 87.726562 231.714844 86.878906 231.503906 86.046875 231.25 C 85.210938 231 84.390625 230.707031 83.585938 230.371094 C 82.78125 230.039062 81.992188 229.667969 81.226562 229.257812 C 80.457031 228.847656 79.710938 228.398438 78.984375 227.917969 C 78.257812 227.433594 77.558594 226.914062 76.886719 226.363281 C 76.210938 225.8125 75.566406 225.226562 74.949219 224.613281 C 74.332031 223.996094 73.75 223.351562 73.195312 222.679688 C 72.644531 222.007812 72.125 221.308594 71.640625 220.585938 C 71.15625 219.859375 70.707031 219.113281 70.296875 218.347656 C 69.886719 217.578125 69.511719 216.792969 69.179688 215.988281 C 68.847656 215.183594 68.554688 214.367188 68.300781 213.535156 C 68.046875 212.699219 67.835938 211.855469 67.664062 211.003906 C 67.496094 210.148438 67.367188 209.289062 67.28125 208.425781 C 67.195312 207.558594 67.152344 206.6875 67.152344 205.820312 L 67.152344 93.765625 C 67.152344 92.898438 67.195312 92.027344 67.28125 91.164062 C 67.367188 90.296875 67.496094 89.4375 67.664062 88.582031 C 67.835938 87.730469 68.046875 86.886719 68.300781 86.050781 C 68.554688 85.21875 68.847656 84.402344 69.179688 83.597656 C 69.511719 82.792969 69.886719 82.007812 70.296875 81.238281 C 70.707031 80.472656 71.15625 79.726562 71.640625 79 C 72.125 78.277344 72.644531 77.578125 73.195312 76.90625 C 73.75 76.234375 74.332031 75.589844 74.949219 74.972656 C 75.566406 74.359375 76.210938 73.773438 76.886719 73.222656 C 77.558594 72.671875 78.257812 72.152344 78.984375 71.667969 C 79.710938 71.1875 80.457031 70.738281 81.226562 70.328125 C 81.992188 69.917969 82.78125 69.546875 83.585938 69.214844 C 84.390625 68.878906 85.210938 68.585938 86.046875 68.335938 C 86.878906 68.082031 87.726562 67.871094 88.578125 67.699219 C 89.433594 67.53125 90.296875 67.402344 91.164062 67.320312 C 92.03125 67.234375 92.902344 67.191406 93.773438 67.191406 Z M 93.773438 67.191406 " clip-rule="nonzero"/></clipPath><linearGradient x1="255.753645" gradientTransform="matrix(1.287206, 0, 0, 1.285144, -261.392774, -479.419721)" y1="554.196336" x2="382.744462" gradientUnits="userSpaceOnUse" y2="424.986884" id="91b0e3a896"><stop stop-opacity="1" stop-color="rgb(2.69928%, 0.39978%, 20.799255%)" offset="0"/><stop stop-opacity="1" stop-color="rgb(2.867126%, 0.480652%, 20.849609%)" offset="0.0625"/><stop stop-opacity="1" stop-color="rgb(3.189087%, 0.637817%, 20.94574%)" offset="0.0703125"/><stop stop-opacity="1" stop-color="rgb(3.500366%, 0.788879%, 21.038818%)" offset="0.078125"/><stop stop-opacity="1" stop-color="rgb(3.81012%, 0.939941%, 21.131897%)" offset="0.0859375"/><stop stop-opacity="1" stop-color="rgb(4.121399%, 1.091003%, 21.224976%)" offset="0.09375"/><stop stop-opacity="1" stop-color="rgb(4.431152%, 1.243591%, 21.31958%)" offset="0.101562"/><stop stop-opacity="1" stop-color="rgb(4.742432%, 1.394653%, 21.412659%)" offset="0.109375"/><stop stop-opacity="1" stop-color="rgb(5.052185%, 1.545715%, 21.505737%)" offset="0.117188"/><stop stop-opacity="1" stop-color="rgb(5.363464%, 1.696777%, 21.598816%)" offset="0.125"/><stop stop-opacity="1" stop-color="rgb(5.674744%, 1.847839%, 21.691895%)" offset="0.132813"/><stop stop-opacity="1" stop-color="rgb(5.984497%, 1.998901%, 21.784973%)" offset="0.140625"/><stop stop-opacity="1" stop-color="rgb(6.295776%, 2.151489%, 21.878052%)" offset="0.148438"/><stop stop-opacity="1" stop-color="rgb(6.60553%, 2.302551%, 21.97113%)" offset="0.15625"/><stop stop-opacity="1" stop-color="rgb(6.916809%, 2.453613%, 22.065735%)" offset="0.164062"/><stop stop-opacity="1" stop-color="rgb(7.226562%, 2.604675%, 22.158813%)" offset="0.171875"/><stop stop-opacity="1" stop-color="rgb(7.537842%, 2.755737%, 22.251892%)" offset="0.179688"/><stop stop-opacity="1" stop-color="rgb(7.847595%, 2.908325%, 22.344971%)" offset="0.1875"/><stop stop-opacity="1" stop-color="rgb(8.158875%, 3.059387%, 22.438049%)" offset="0.195313"/><stop stop-opacity="1" stop-color="rgb(8.468628%, 3.210449%, 22.531128%)" offset="0.203125"/><stop stop-opacity="1" stop-color="rgb(8.779907%, 3.361511%, 22.624207%)" offset="0.210938"/><stop stop-opacity="1" stop-color="rgb(9.091187%, 3.512573%, 22.717285%)" offset="0.21875"/><stop stop-opacity="1" stop-color="rgb(9.40094%, 3.663635%, 22.810364%)" offset="0.226562"/><stop stop-opacity="1" stop-color="rgb(9.712219%, 3.816223%, 22.904968%)" offset="0.234375"/><stop stop-opacity="1" stop-color="rgb(10.021973%, 3.967285%, 22.998047%)" offset="0.242188"/><stop stop-opacity="1" stop-color="rgb(10.333252%, 4.118347%, 23.091125%)" offset="0.25"/><stop stop-opacity="1" stop-color="rgb(10.643005%, 4.269409%, 23.184204%)" offset="0.257812"/><stop stop-opacity="1" stop-color="rgb(10.954285%, 4.420471%, 23.277283%)" offset="0.265625"/><stop stop-opacity="1" stop-color="rgb(11.264038%, 4.571533%, 23.370361%)" offset="0.273438"/><stop stop-opacity="1" stop-color="rgb(11.575317%, 4.724121%, 23.46344%)" offset="0.28125"/><stop stop-opacity="1" stop-color="rgb(11.885071%, 4.875183%, 23.556519%)" offset="0.289062"/><stop stop-opacity="1" stop-color="rgb(12.19635%, 5.026245%, 23.651123%)" offset="0.296875"/><stop stop-opacity="1" stop-color="rgb(12.507629%, 5.177307%, 23.744202%)" offset="0.304688"/><stop stop-opacity="1" stop-color="rgb(12.817383%, 5.328369%, 23.83728%)" offset="0.3125"/><stop stop-opacity="1" stop-color="rgb(13.128662%, 5.480957%, 23.930359%)" offset="0.320312"/><stop stop-opacity="1" stop-color="rgb(13.438416%, 5.632019%, 24.023438%)" offset="0.328125"/><stop stop-opacity="1" stop-color="rgb(13.749695%, 5.783081%, 24.116516%)" offset="0.335938"/><stop stop-opacity="1" stop-color="rgb(14.059448%, 5.934143%, 24.209595%)" offset="0.34375"/><stop stop-opacity="1" stop-color="rgb(14.370728%, 6.085205%, 24.302673%)" offset="0.351562"/><stop stop-opacity="1" stop-color="rgb(14.680481%, 6.236267%, 24.397278%)" offset="0.359375"/><stop stop-opacity="1" stop-color="rgb(14.99176%, 6.388855%, 24.490356%)" offset="0.367188"/><stop stop-opacity="1" stop-color="rgb(15.301514%, 6.539917%, 24.583435%)" offset="0.375"/><stop stop-opacity="1" stop-color="rgb(15.612793%, 6.690979%, 24.676514%)" offset="0.382812"/><stop stop-opacity="1" stop-color="rgb(15.924072%, 6.842041%, 24.769592%)" offset="0.390625"/><stop stop-opacity="1" stop-color="rgb(16.233826%, 6.993103%, 24.862671%)" offset="0.398438"/><stop stop-opacity="1" stop-color="rgb(16.545105%, 7.145691%, 24.95575%)" offset="0.40625"/><stop stop-opacity="1" stop-color="rgb(16.854858%, 7.296753%, 25.048828%)" offset="0.414062"/><stop stop-opacity="1" stop-color="rgb(17.166138%, 7.447815%, 25.143433%)" offset="0.421875"/><stop stop-opacity="1" stop-color="rgb(17.475891%, 7.598877%, 25.236511%)" offset="0.429688"/><stop stop-opacity="1" stop-color="rgb(17.78717%, 7.749939%, 25.32959%)" offset="0.4375"/><stop stop-opacity="1" stop-color="rgb(18.096924%, 7.901001%, 25.422668%)" offset="0.445312"/><stop stop-opacity="1" stop-color="rgb(18.408203%, 8.053589%, 25.515747%)" offset="0.453125"/><stop stop-opacity="1" stop-color="rgb(18.717957%, 8.204651%, 25.608826%)" offset="0.460938"/><stop stop-opacity="1" stop-color="rgb(19.029236%, 8.355713%, 25.701904%)" offset="0.46875"/><stop stop-opacity="1" stop-color="rgb(19.340515%, 8.506775%, 25.794983%)" offset="0.476563"/><stop stop-opacity="1" stop-color="rgb(19.650269%, 8.657837%, 25.888062%)" offset="0.484375"/><stop stop-opacity="1" stop-color="rgb(19.961548%, 8.808899%, 25.982666%)" offset="0.492188"/><stop stop-opacity="1" stop-color="rgb(20.271301%, 8.961487%, 26.075745%)" offset="0.494581"/><stop stop-opacity="1" stop-color="rgb(20.426941%, 9.037781%, 26.123047%)" offset="0.5"/><stop stop-opacity="1" stop-color="rgb(20.582581%, 9.112549%, 26.168823%)" offset="0.505419"/><stop stop-opacity="1" stop-color="rgb(20.73822%, 9.188843%, 26.216125%)" offset="0.507812"/><stop stop-opacity="1" stop-color="rgb(20.892334%, 9.263611%, 26.261902%)" offset="0.515625"/><stop stop-opacity="1" stop-color="rgb(21.203613%, 9.414673%, 26.35498%)" offset="0.523438"/><stop stop-opacity="1" stop-color="rgb(21.513367%, 9.565735%, 26.448059%)" offset="0.53125"/><stop stop-opacity="1" stop-color="rgb(21.824646%, 9.718323%, 26.541138%)" offset="0.539063"/><stop stop-opacity="1" stop-color="rgb(22.134399%, 9.869385%, 26.634216%)" offset="0.546875"/><stop stop-opacity="1" stop-color="rgb(22.445679%, 10.020447%, 26.728821%)" offset="0.554688"/><stop stop-opacity="1" stop-color="rgb(22.756958%, 10.171509%, 26.821899%)" offset="0.5625"/><stop stop-opacity="1" stop-color="rgb(23.066711%, 10.322571%, 26.914978%)" offset="0.570313"/><stop stop-opacity="1" stop-color="rgb(23.377991%, 10.473633%, 27.008057%)" offset="0.578125"/><stop stop-opacity="1" stop-color="rgb(23.687744%, 10.626221%, 27.101135%)" offset="0.585938"/><stop stop-opacity="1" stop-color="rgb(23.999023%, 10.777283%, 27.194214%)" offset="0.59375"/><stop stop-opacity="1" stop-color="rgb(24.308777%, 10.928345%, 27.287292%)" offset="0.601562"/><stop stop-opacity="1" stop-color="rgb(24.620056%, 11.079407%, 27.380371%)" offset="0.609375"/><stop stop-opacity="1" stop-color="rgb(24.92981%, 11.230469%, 27.474976%)" offset="0.617187"/><stop stop-opacity="1" stop-color="rgb(25.241089%, 11.381531%, 27.568054%)" offset="0.625"/><stop stop-opacity="1" stop-color="rgb(25.550842%, 11.534119%, 27.661133%)" offset="0.632812"/><stop stop-opacity="1" stop-color="rgb(25.862122%, 11.685181%, 27.754211%)" offset="0.640625"/><stop stop-opacity="1" stop-color="rgb(26.173401%, 11.836243%, 27.84729%)" offset="0.648437"/><stop stop-opacity="1" stop-color="rgb(26.483154%, 11.987305%, 27.940369%)" offset="0.65625"/><stop stop-opacity="1" stop-color="rgb(26.794434%, 12.138367%, 28.033447%)" offset="0.664062"/><stop stop-opacity="1" stop-color="rgb(27.104187%, 12.290955%, 28.126526%)" offset="0.671875"/><stop stop-opacity="1" stop-color="rgb(27.415466%, 12.442017%, 28.22113%)" offset="0.679688"/><stop stop-opacity="1" stop-color="rgb(27.72522%, 12.593079%, 28.314209%)" offset="0.6875"/><stop stop-opacity="1" stop-color="rgb(28.036499%, 12.744141%, 28.407288%)" offset="0.695312"/><stop stop-opacity="1" stop-color="rgb(28.346252%, 12.895203%, 28.500366%)" offset="0.703125"/><stop stop-opacity="1" stop-color="rgb(28.657532%, 13.046265%, 28.593445%)" offset="0.710938"/><stop stop-opacity="1" stop-color="rgb(28.967285%, 13.198853%, 28.686523%)" offset="0.71875"/><stop stop-opacity="1" stop-color="rgb(29.278564%, 13.349915%, 28.779602%)" offset="0.726563"/><stop stop-opacity="1" stop-color="rgb(29.589844%, 13.500977%, 28.872681%)" offset="0.734375"/><stop stop-opacity="1" stop-color="rgb(29.899597%, 13.652039%, 28.967285%)" offset="0.742188"/><stop stop-opacity="1" stop-color="rgb(30.210876%, 13.803101%, 29.060364%)" offset="0.75"/><stop stop-opacity="1" stop-color="rgb(30.52063%, 13.955688%, 29.153442%)" offset="0.757813"/><stop stop-opacity="1" stop-color="rgb(30.831909%, 14.10675%, 29.246521%)" offset="0.765625"/><stop stop-opacity="1" stop-color="rgb(31.141663%, 14.257812%, 29.3396%)" offset="0.773438"/><stop stop-opacity="1" stop-color="rgb(31.452942%, 14.408875%, 29.432678%)" offset="0.78125"/><stop stop-opacity="1" stop-color="rgb(31.762695%, 14.559937%, 29.525757%)" offset="0.789063"/><stop stop-opacity="1" stop-color="rgb(32.073975%, 14.710999%, 29.618835%)" offset="0.796875"/><stop stop-opacity="1" stop-color="rgb(32.383728%, 14.863586%, 29.711914%)" offset="0.804688"/><stop stop-opacity="1" stop-color="rgb(32.695007%, 15.014648%, 29.806519%)" offset="0.8125"/><stop stop-opacity="1" stop-color="rgb(33.006287%, 15.16571%, 29.899597%)" offset="0.820312"/><stop stop-opacity="1" stop-color="rgb(33.31604%, 15.316772%, 29.992676%)" offset="0.828125"/><stop stop-opacity="1" stop-color="rgb(33.627319%, 15.467834%, 30.085754%)" offset="0.835937"/><stop stop-opacity="1" stop-color="rgb(33.937073%, 15.618896%, 30.178833%)" offset="0.84375"/><stop stop-opacity="1" stop-color="rgb(34.248352%, 15.771484%, 30.271912%)" offset="0.851562"/><stop stop-opacity="1" stop-color="rgb(34.558105%, 15.922546%, 30.36499%)" offset="0.859375"/><stop stop-opacity="1" stop-color="rgb(34.869385%, 16.073608%, 30.458069%)" offset="0.867188"/><stop stop-opacity="1" stop-color="rgb(35.179138%, 16.22467%, 30.552673%)" offset="0.875"/><stop stop-opacity="1" stop-color="rgb(35.490417%, 16.375732%, 30.645752%)" offset="0.882812"/><stop stop-opacity="1" stop-color="rgb(35.800171%, 16.52832%, 30.738831%)" offset="0.890625"/><stop stop-opacity="1" stop-color="rgb(36.11145%, 16.679382%, 30.831909%)" offset="0.898438"/><stop stop-opacity="1" stop-color="rgb(36.422729%, 16.830444%, 30.924988%)" offset="0.90625"/><stop stop-opacity="1" stop-color="rgb(36.732483%, 16.981506%, 31.018066%)" offset="0.914063"/><stop stop-opacity="1" stop-color="rgb(37.043762%, 17.132568%, 31.111145%)" offset="0.921875"/><stop stop-opacity="1" stop-color="rgb(37.353516%, 17.28363%, 31.204224%)" offset="0.929688"/><stop stop-opacity="1" stop-color="rgb(37.664795%, 17.436218%, 31.298828%)" offset="0.9375"/><stop stop-opacity="1" stop-color="rgb(37.908936%, 17.555237%, 31.37207%)" offset="1"/></linearGradient></defs><g clip-path="url(#caf3b56645)"><g clip-path="url(#01ed5ea473)"><path fill="url(#91b0e3a896)" d="M 67.402344 67.402344 L 67.402344 232.394531 L 231.941406 232.394531 L 231.941406 67.402344 Z M 67.402344 67.402344 " fill-rule="nonzero"/></g></g><path fill="#ffffff" d="M 150.785156 138.296875 C 154.992188 138.296875 158.183594 137.398438 160.355469 135.554688 C 162.53125 133.714844 163.617188 131.03125 163.617188 127.46875 C 163.617188 123.949219 162.53125 121.277344 160.355469 119.449219 C 158.167969 117.574219 154.992188 116.640625 150.785156 116.640625 L 136.007812 116.640625 L 136.007812 138.296875 L 150.785156 138.296875 M 151.683594 183.054688 C 157.046875 183.054688 161.070312 181.9375 163.753906 179.699219 C 166.484375 177.460938 167.847656 174.078125 167.847656 169.554688 C 167.847656 165.121094 166.507812 161.808594 163.824219 159.617188 C 161.140625 157.378906 157.097656 156.257812 151.6875 156.257812 L 136.007812 156.257812 L 136.007812 183.058594 L 151.6875 183.058594 M 176.519531 146.253906 C 182.253906 147.898438 186.695312 150.9375 189.839844 155.367188 C 192.984375 159.800781 194.554688 165.238281 194.554688 171.683594 C 194.554688 181.550781 191.179688 188.910156 184.429688 193.753906 C 177.675781 198.597656 167.410156 201.019531 153.628906 201.019531 L 109.304688 201.019531 L 109.304688 98.707031 L 149.398438 98.707031 C 163.78125 98.707031 174.1875 100.855469 180.613281 105.148438 C 187.089844 109.445312 190.328125 116.324219 190.328125 125.78125 C 190.328125 130.761719 189.148438 135.011719 186.789062 138.53125 C 184.429688 142.003906 180.996094 144.570312 176.523438 146.277344 " fill-opacity="1" fill-rule="nonzero"/></svg>