<svg xmlns="http://www.w3.org/2000/svg" xmlns:xlink="http://www.w3.org/1999/xlink" width="400" zoomAndPan="magnify" viewBox="0 0 300 299.999988" height="400" preserveAspectRatio="xMidYMid meet" version="1.0"><defs><clipPath id="499269b094"><path d="M 77.816406 88 L 221.816406 88 L 221.816406 251.449219 L 77.816406 251.449219 Z M 77.816406 88 " clip-rule="nonzero"/></clipPath><clipPath id="3aa9109ac4"><path d="M 111 48.199219 L 134 48.199219 L 134 76 L 111 76 Z M 111 48.199219 " clip-rule="nonzero"/></clipPath><clipPath id="b2b3779dca"><path d="M 137 48.199219 L 160 48.199219 L 160 76 L 137 76 Z M 137 48.199219 " clip-rule="nonzero"/></clipPath><clipPath id="3226b576e2"><path d="M 164 48.199219 L 186 48.199219 L 186 76 L 164 76 Z M 164 48.199219 " clip-rule="nonzero"/></clipPath></defs><g clip-path="url(#499269b094)"><path fill="#264de4" d="M 149.753906 251.445312 L 91 235.121094 L 77.910156 88.144531 L 221.773438 88.144531 L 208.671875 235.097656 L 149.753906 251.441406 Z M 149.753906 251.445312 " fill-opacity="1" fill-rule="nonzero"/></g><path fill="#2965f1" d="M 197.453125 225.742188 L 208.652344 100.160156 L 149.84375 100.160156 L 149.84375 238.945312 L 197.453125 225.738281 Z M 197.453125 225.742188 " fill-opacity="1" fill-rule="nonzero"/><path fill="#ebebeb" d="M 107.925781 154.675781 L 109.539062 172.695312 L 149.84375 172.695312 L 149.84375 154.675781 Z M 107.925781 154.675781 " fill-opacity="1" fill-rule="nonzero"/><path fill="#ebebeb" d="M 104.679688 118.183594 L 106.316406 136.210938 L 149.84375 136.210938 L 149.84375 118.183594 Z M 104.679688 118.183594 " fill-opacity="1" fill-rule="nonzero"/><path fill="#ebebeb" d="M 149.84375 201.488281 L 149.765625 201.511719 L 129.707031 196.085938 L 128.421875 181.710938 L 110.34375 181.710938 L 112.867188 210.015625 L 149.757812 220.265625 L 149.84375 220.242188 Z M 149.84375 201.488281 " fill-opacity="1" fill-rule="nonzero"/><g clip-path="url(#3aa9109ac4)"><path fill="#000000" d="M 111.769531 48.199219 L 133.582031 48.199219 L 133.582031 57.332031 L 120.890625 57.332031 L 120.890625 66.460938 L 133.582031 66.460938 L 133.582031 75.589844 L 111.769531 75.589844 Z M 111.769531 48.199219 " fill-opacity="1" fill-rule="nonzero"/></g><g clip-path="url(#b2b3779dca)"><path fill="#000000" d="M 137.945312 48.199219 L 159.757812 48.199219 L 159.757812 56.140625 L 147.070312 56.140625 L 147.070312 57.726562 L 159.757812 57.726562 L 159.757812 75.988281 L 137.945312 75.988281 L 137.945312 67.652344 L 150.636719 67.652344 L 150.636719 66.0625 L 137.945312 66.0625 Z M 137.945312 48.199219 " fill-opacity="1" fill-rule="nonzero"/></g><g clip-path="url(#3226b576e2)"><path fill="#000000" d="M 164.121094 48.199219 L 185.9375 48.199219 L 185.9375 56.140625 L 173.242188 56.140625 L 173.242188 57.726562 L 185.9375 57.726562 L 185.9375 75.988281 L 164.121094 75.988281 L 164.121094 67.652344 L 176.8125 67.652344 L 176.8125 66.0625 L 164.121094 66.0625 Z M 164.121094 48.199219 " fill-opacity="1" fill-rule="nonzero"/></g><path fill="#ffffff" d="M 191.648438 154.675781 L 194.898438 118.183594 L 149.78125 118.183594 L 149.78125 136.210938 L 175.160156 136.210938 L 173.523438 154.675781 L 149.78125 154.675781 L 149.78125 172.695312 L 171.960938 172.695312 L 169.867188 196.074219 L 149.78125 201.503906 L 149.78125 220.253906 L 186.703125 210.015625 L 186.972656 206.96875 L 191.207031 159.511719 Z M 191.648438 154.675781 " fill-opacity="1" fill-rule="nonzero"/></svg>