<svg xmlns="http://www.w3.org/2000/svg" xmlns:xlink="http://www.w3.org/1999/xlink" width="400" zoomAndPan="magnify" viewBox="0 0 300 299.999988" height="400" preserveAspectRatio="xMidYMid meet" version="1.0"><defs><clipPath id="f5e963c475"><path d="M 81.085938 90 L 219.085938 90 L 219.085938 247.066406 L 81.085938 247.066406 Z M 81.085938 90 " clip-rule="nonzero"/></clipPath><clipPath id="034494e9b1"><path d="M 94 52.816406 L 120 52.816406 L 120 80 L 94 80 Z M 94 52.816406 " clip-rule="nonzero"/></clipPath><clipPath id="f9e8b0766c"><path d="M 123 52.816406 L 148 52.816406 L 148 80 L 123 80 Z M 123 52.816406 " clip-rule="nonzero"/></clipPath><clipPath id="14f2b74080"><path d="M 151 52.816406 L 181 52.816406 L 181 80 L 151 80 Z M 151 52.816406 " clip-rule="nonzero"/></clipPath><clipPath id="4921080c51"><path d="M 185 52.816406 L 207 52.816406 L 207 80 L 185 80 Z M 185 52.816406 " clip-rule="nonzero"/></clipPath></defs><rect x="-30" width="360" fill="#ffffff" y="-29.999999" height="359.999986" fill-opacity="1"/><rect x="-30" width="360" fill="#ffffff" y="-29.999999" height="359.999986" fill-opacity="1"/><rect x="-30" width="360" fill="#ffffff" y="-29.999999" height="359.999986" fill-opacity="1"/><g clip-path="url(#f5e963c475)"><path fill="#e44d26" d="M 219.046875 90.988281 L 206.488281 231.4375 L 150.027344 247.058594 L 93.722656 231.457031 L 81.175781 90.988281 L 219.050781 90.988281 Z M 219.046875 90.988281 " fill-opacity="1" fill-rule="nonzero"/></g><path fill="#f16529" d="M 150.113281 235.117188 L 195.738281 222.496094 L 206.472656 102.476562 L 150.113281 102.472656 Z M 150.113281 235.117188 " fill-opacity="1" fill-rule="nonzero"/><path fill="#ebebeb" d="M 125.695312 136.929688 L 150.113281 136.929688 L 150.113281 119.699219 L 106.832031 119.699219 L 107.246094 124.324219 L 111.488281 171.796875 L 150.113281 171.796875 L 150.113281 154.574219 L 127.273438 154.574219 Z M 125.695312 136.929688 " fill-opacity="1" fill-rule="nonzero"/><path fill="#ebebeb" d="M 129.585938 180.414062 L 112.261719 180.414062 L 114.679688 207.464844 L 150.035156 217.261719 L 150.113281 217.238281 L 150.113281 199.316406 L 150.039062 199.335938 L 130.816406 194.152344 Z M 129.585938 180.414062 " fill-opacity="1" fill-rule="nonzero"/><g clip-path="url(#034494e9b1)"><path fill="#000000" d="M 94.003906 52.816406 L 102.777344 52.816406 L 102.777344 61.464844 L 110.800781 61.464844 L 110.800781 52.816406 L 119.574219 52.816406 L 119.574219 79.007812 L 110.800781 79.007812 L 110.800781 70.238281 L 102.777344 70.238281 L 102.777344 79.007812 L 94.003906 79.007812 Z M 94.003906 52.816406 " fill-opacity="1" fill-rule="nonzero"/></g><g clip-path="url(#f9e8b0766c)"><path fill="#000000" d="M 131.105469 61.503906 L 123.386719 61.503906 L 123.386719 52.816406 L 147.605469 52.816406 L 147.605469 61.503906 L 139.878906 61.503906 L 139.878906 79.007812 L 131.109375 79.007812 L 131.109375 61.503906 Z M 131.105469 61.503906 " fill-opacity="1" fill-rule="nonzero"/></g><g clip-path="url(#14f2b74080)"><path fill="#000000" d="M 151.449219 52.816406 L 160.59375 52.816406 L 166.21875 62.019531 L 171.839844 52.816406 L 180.988281 52.816406 L 180.988281 79.007812 L 172.257812 79.007812 L 172.257812 66.027344 L 166.21875 75.339844 L 166.070312 75.339844 L 160.03125 66.027344 L 160.03125 79.007812 L 151.449219 79.007812 Z M 151.449219 52.816406 " fill-opacity="1" fill-rule="nonzero"/></g><g clip-path="url(#4921080c51)"><path fill="#000000" d="M 185.355469 52.816406 L 194.128906 52.816406 L 194.128906 70.351562 L 206.46875 70.351562 L 206.46875 79.007812 L 185.355469 79.007812 Z M 185.355469 52.816406 " fill-opacity="1" fill-rule="nonzero"/></g><path fill="#ffffff" d="M 150.054688 171.796875 L 171.3125 171.796875 L 169.304688 194.140625 L 150.054688 199.332031 L 150.054688 217.25 L 185.4375 207.464844 L 185.699219 204.550781 L 189.757812 159.195312 L 190.175781 154.574219 L 150.054688 154.574219 Z M 150.054688 171.796875 " fill-opacity="1" fill-rule="nonzero"/><path fill="#ffffff" d="M 150.054688 136.886719 L 150.054688 136.929688 L 191.746094 136.929688 L 192.089844 133.054688 L 192.878906 124.324219 L 193.289062 119.699219 L 150.054688 119.699219 Z M 150.054688 136.886719 " fill-opacity="1" fill-rule="nonzero"/></svg>