<svg xmlns="http://www.w3.org/2000/svg" xmlns:xlink="http://www.w3.org/1999/xlink" width="400" zoomAndPan="magnify" viewBox="0 0 300 299.999988" height="400" preserveAspectRatio="xMidYMid meet" version="1.0"><defs><clipPath id="c5e8e6a3a7"><path d="M 59.695312 59.695312 L 240.445312 59.695312 L 240.445312 240.445312 L 59.695312 240.445312 Z M 59.695312 59.695312 " clip-rule="nonzero"/></clipPath></defs><g clip-path="url(#c5e8e6a3a7)"><path fill="#f7df1e" d="M 59.695312 59.695312 L 240.445312 59.695312 L 240.445312 240.445312 L 59.695312 240.445312 Z M 59.695312 59.695312 " fill-opacity="1" fill-rule="nonzero"/></g><path fill="#000000" d="M 107.21875 210.738281 L 121.050781 202.375 C 123.71875 207.105469 126.148438 211.105469 131.972656 211.105469 C 137.550781 211.105469 141.074219 208.917969 141.074219 200.433594 L 141.074219 142.675781 L 158.054688 142.675781 L 158.054688 200.671875 C 158.054688 218.257812 147.746094 226.273438 132.699219 226.273438 C 119.109375 226.273438 111.222656 219.234375 107.21875 210.738281 " fill-opacity="1" fill-rule="nonzero"/><path fill="#000000" d="M 167.28125 208.917969 L 181.113281 200.910156 C 184.757812 206.855469 189.488281 211.226562 197.855469 211.226562 C 204.894531 211.226562 209.382812 207.710938 209.382812 202.855469 C 209.382812 197.027344 204.773438 194.96875 197.007812 191.570312 L 192.765625 189.75 C 180.507812 184.53125 172.378906 177.984375 172.378906 164.148438 C 172.378906 151.410156 182.082031 141.703125 197.253906 141.703125 C 208.050781 141.703125 215.816406 145.464844 221.394531 155.292969 L 208.171875 163.789062 C 205.261719 158.570312 202.105469 156.507812 197.253906 156.507812 C 192.277344 156.507812 189.121094 159.664062 189.121094 163.789062 C 189.121094 168.886719 192.277344 170.945312 199.554688 174.101562 L 203.800781 175.917969 C 218.238281 182.109375 226.371094 188.414062 226.371094 202.613281 C 226.371094 217.898438 214.363281 226.273438 198.222656 226.273438 C 182.449219 226.273438 172.261719 218.746094 167.28125 208.917969 " fill-opacity="1" fill-rule="nonzero"/></svg>