<svg xmlns="http://www.w3.org/2000/svg" xmlns:xlink="http://www.w3.org/1999/xlink" width="400" zoomAndPan="magnify" viewBox="0 0 300 299.999988" height="400" preserveAspectRatio="xMidYMid meet" version="1.0"><defs><clipPath id="d82a7fa26d"><path d="M 30 165 L 130 165 L 130 212.945312 L 30 212.945312 Z M 30 165 " clip-rule="nonzero"/></clipPath></defs><rect x="-30" width="360" fill="#ffffff" y="-29.999999" height="359.999986" fill-opacity="1"/><rect x="-30" width="360" fill="#ffffff" y="-29.999999" height="359.999986" fill-opacity="1"/><rect x="-30" width="360" fill="#ffffff" y="-29.999999" height="359.999986" fill-opacity="1"/><g clip-path="url(#d82a7fa26d)"><path fill="#00618a" d="M 30.875 202.058594 L 38.722656 202.058594 L 38.722656 171.101562 L 50.875 198.097656 C 52.308594 201.351562 54.273438 202.523438 58.121094 202.523438 C 61.96875 202.523438 63.855469 201.367188 65.289062 198.097656 L 77.441406 171.101562 L 77.441406 202.070312 L 85.292969 202.070312 L 85.292969 171.152344 C 85.292969 168.136719 84.082031 166.675781 81.59375 165.921875 C 75.632812 164.0625 71.628906 165.671875 69.820312 169.695312 L 57.894531 196.339844 L 46.347656 169.683594 C 44.609375 165.660156 40.535156 164.050781 34.574219 165.910156 C 32.082031 166.664062 30.875 168.125 30.875 171.140625 Z M 91.816406 176.851562 L 99.664062 176.851562 L 99.664062 193.914062 C 99.589844 194.84375 99.960938 197.019531 104.261719 197.085938 C 106.457031 197.121094 121.191406 197.085938 121.328125 197.085938 L 121.328125 176.765625 L 129.195312 176.765625 C 129.230469 176.765625 129.1875 204.46875 129.1875 204.589844 C 129.230469 211.421875 120.703125 212.90625 116.773438 213.019531 L 91.988281 213.019531 L 91.988281 207.742188 L 116.816406 207.742188 C 121.867188 207.207031 121.269531 204.699219 121.269531 203.855469 L 121.269531 201.796875 L 104.589844 201.796875 C 96.828125 201.730469 91.886719 198.34375 91.824219 194.449219 C 91.816406 194.101562 91.992188 177.019531 91.820312 176.851562 Z M 91.816406 176.851562 " fill-opacity="1" fill-rule="nonzero"/></g><path fill="#e48e00" d="M 135.246094 202.058594 L 157.8125 202.058594 C 160.453125 202.058594 163.019531 201.507812 165.058594 200.550781 C 168.457031 198.992188 170.113281 196.878906 170.113281 194.113281 L 170.113281 188.382812 C 170.113281 186.121094 168.226562 184.011719 164.53125 182.601562 C 162.570312 181.847656 160.152344 181.445312 157.8125 181.445312 L 148.304688 181.445312 C 145.136719 181.445312 143.625 180.492188 143.246094 178.378906 C 143.171875 178.128906 143.171875 177.914062 143.171875 177.675781 L 143.171875 174.109375 C 143.171875 173.90625 143.171875 173.703125 143.246094 173.453125 C 143.625 171.84375 144.457031 171.390625 147.246094 171.128906 C 147.472656 171.128906 147.777344 171.078125 148.003906 171.078125 L 170.417969 171.078125 L 170.417969 165.851562 L 148.378906 165.851562 C 145.210938 165.851562 143.550781 166.050781 142.039062 166.503906 C 137.355469 167.960938 135.316406 170.285156 135.316406 174.308594 L 135.316406 178.882812 C 135.316406 182.402344 139.316406 185.417969 146.03125 186.121094 C 146.789062 186.171875 147.542969 186.222656 148.296875 186.222656 L 156.449219 186.222656 C 156.75 186.222656 157.054688 186.222656 157.277344 186.273438 C 159.769531 186.476562 160.828125 186.925781 161.582031 187.832031 C 162.046875 188.296875 162.1875 188.738281 162.1875 189.226562 L 162.1875 193.800781 C 162.1875 194.355469 161.808594 195.058594 161.054688 195.660156 C 160.375 196.265625 159.242188 196.667969 157.734375 196.769531 C 157.429688 196.769531 157.203125 196.816406 156.902344 196.816406 L 135.242188 196.816406 L 135.242188 202.046875 Z M 219.078125 192.960938 C 219.078125 198.339844 223.078125 201.355469 231.152344 201.957031 C 231.90625 202.015625 232.664062 202.050781 233.417969 202.058594 L 253.871094 202.058594 L 253.871094 196.832031 L 233.265625 196.832031 C 228.664062 196.832031 226.925781 195.675781 226.925781 192.910156 L 226.925781 165.859375 L 219.078125 165.859375 Z M 175.121094 193.230469 L 175.121094 174.59375 C 175.121094 169.859375 178.449219 166.984375 185.027344 166.078125 C 185.730469 165.980469 186.4375 165.929688 187.148438 165.929688 L 202.046875 165.929688 C 202.78125 165.929688 203.511719 165.980469 204.242188 166.078125 C 210.820312 166.984375 214.148438 169.855469 214.148438 174.59375 L 214.148438 193.230469 C 214.148438 197.074219 212.734375 199.128906 209.476562 200.46875 L 217.207031 207.445312 L 208.09375 207.445312 L 201.839844 201.800781 L 195.542969 202.199219 L 187.148438 202.199219 C 185.710938 202.199219 184.199219 202 182.535156 201.546875 C 177.53125 200.183594 175.125 197.566406 175.125 193.230469 Z M 183.59375 192.765625 C 183.59375 193.019531 183.671875 193.269531 183.746094 193.574219 C 184.210938 195.738281 186.242188 196.949219 189.328125 196.949219 L 196.460938 196.949219 L 189.910156 191.039062 L 199.023438 191.039062 L 204.726562 196.195312 C 205.777344 195.632812 206.46875 194.773438 206.703125 193.675781 C 206.777344 193.421875 206.777344 193.171875 206.777344 192.917969 L 206.777344 175.046875 C 206.777344 174.847656 206.777344 174.582031 206.703125 174.34375 C 206.238281 172.328125 204.207031 171.167969 201.183594 171.167969 L 189.351562 171.167969 C 185.859375 171.167969 183.605469 172.679688 183.605469 175.046875 L 183.605469 192.78125 Z M 183.59375 192.765625 " fill-opacity="1" fill-rule="nonzero"/><path fill="#00618a" d="M 260.773438 157.1875 C 255.949219 157.058594 252.261719 157.503906 249.113281 158.832031 C 248.214844 159.210938 246.789062 159.21875 246.640625 160.339844 C 247.132812 160.855469 247.210938 161.625 247.601562 162.257812 C 248.355469 163.476562 249.625 165.105469 250.757812 165.960938 C 251.996094 166.894531 253.269531 167.890625 254.601562 168.703125 C 256.960938 170.140625 259.597656 170.964844 261.871094 172.402344 C 263.210938 173.25 264.542969 174.320312 265.847656 175.28125 C 266.496094 175.753906 266.929688 176.492188 267.769531 176.789062 L 267.769531 176.652344 C 267.328125 176.089844 267.214844 175.320312 266.808594 174.734375 L 265.027344 172.953125 C 263.28125 170.628906 261.066406 168.609375 258.714844 166.917969 C 256.839844 165.574219 252.636719 163.753906 251.855469 161.574219 L 251.71875 161.433594 C 253.046875 161.285156 254.605469 160.804688 255.835938 160.476562 C 257.898438 159.925781 259.742188 160.066406 261.875 159.515625 L 264.753906 158.695312 L 264.753906 158.144531 C 263.675781 157.042969 262.910156 155.582031 261.734375 154.582031 C 258.664062 151.964844 255.3125 149.355469 251.859375 147.179688 C 249.945312 145.96875 247.578125 145.1875 245.546875 144.160156 C 244.863281 143.816406 243.664062 143.636719 243.214844 143.0625 C 242.148438 141.707031 241.570312 139.984375 240.746094 138.414062 C 239.023438 135.101562 237.332031 131.484375 235.808594 127.996094 C 234.765625 125.621094 234.085938 123.273438 232.789062 121.140625 C 226.558594 110.910156 219.855469 104.730469 209.46875 98.660156 C 207.257812 97.371094 204.597656 96.859375 201.785156 96.195312 L 197.253906 95.921875 C 196.335938 95.535156 195.375 94.410156 194.511719 93.863281 C 191.070312 91.6875 182.242188 86.964844 179.695312 93.164062 C 178.085938 97.085938 182.097656 100.910156 183.535156 102.898438 C 184.542969 104.292969 185.835938 105.855469 186.554688 107.421875 C 187.027344 108.453125 187.109375 109.484375 187.515625 110.578125 C 188.511719 113.25 189.378906 116.183594 190.667969 118.664062 C 191.320312 119.917969 192.039062 121.242188 192.863281 122.363281 C 193.371094 123.054688 194.238281 123.359375 194.371094 124.421875 C 193.527344 125.609375 193.476562 127.445312 193 128.945312 C 190.855469 135.703125 191.664062 144.097656 194.785156 149.097656 C 195.742188 150.632812 197.996094 153.925781 201.09375 152.660156 C 203.804688 151.558594 203.1875 148.140625 203.976562 145.121094 C 204.152344 144.4375 204.042969 143.9375 204.386719 143.476562 L 204.386719 143.613281 L 206.859375 148.550781 C 208.683594 151.488281 211.929688 154.566406 214.679688 156.640625 C 216.101562 157.714844 217.238281 159.574219 219.066406 160.203125 L 219.066406 160.066406 L 218.929688 160.066406 C 218.574219 159.507812 218.015625 159.277344 217.558594 158.835938 C 216.484375 157.78125 215.289062 156.472656 214.402344 155.269531 C 211.902344 151.878906 209.691406 148.167969 207.679688 144.304688 C 206.71875 142.457031 205.882812 140.421875 205.074219 138.546875 C 204.761719 137.820312 204.765625 136.726562 204.113281 136.351562 C 203.226562 137.730469 201.917969 138.839844 201.234375 140.464844 C 200.136719 143.0625 199.992188 146.226562 199.585938 149.511719 C 199.347656 149.597656 199.453125 149.539062 199.3125 149.648438 C 197.402344 149.191406 196.730469 147.222656 196.019531 145.539062 C 194.222656 141.273438 193.890625 134.40625 195.472656 129.5 C 195.878906 128.230469 197.726562 124.230469 196.980469 123.054688 C 196.621094 121.886719 195.445312 121.195312 194.785156 120.3125 C 193.96875 119.210938 193.152344 117.75 192.589844 116.476562 C 191.121094 113.152344 190.433594 109.417969 188.886719 106.058594 C 188.144531 104.449219 186.894531 102.824219 185.867188 101.40625 C 184.730469 99.828125 183.457031 98.660156 182.574219 96.757812 C 182.261719 96.078125 181.835938 94.992188 182.300781 94.289062 C 182.347656 94.085938 182.445312 93.90625 182.59375 93.757812 C 182.742188 93.609375 182.917969 93.511719 183.125 93.46875 C 183.921875 92.855469 186.136719 93.671875 186.964844 94.015625 C 189.164062 94.929688 191.003906 95.800781 192.867188 97.03125 C 193.761719 97.613281 194.667969 98.769531 195.746094 99.089844 L 196.980469 99.089844 C 198.910156 99.535156 201.074219 99.230469 202.878906 99.777344 C 206.066406 100.742188 208.925781 102.25 211.523438 103.886719 C 219.429688 108.875 225.894531 115.980469 230.316406 124.460938 C 231.03125 125.824219 231.335938 127.128906 231.964844 128.574219 C 233.226562 131.480469 234.820312 134.496094 236.078125 137.347656 C 237.335938 140.195312 238.558594 143.066406 240.332031 145.433594 C 241.265625 146.679688 244.871094 147.347656 246.507812 148.039062 C 247.65625 148.523438 249.535156 149.027344 250.621094 149.683594 C 252.699219 150.933594 254.710938 152.425781 256.660156 153.796875 C 257.632812 154.484375 260.628906 155.984375 260.777344 157.222656 Z M 260.773438 157.1875 " fill-opacity="1" fill-rule="nonzero"/><path fill="#00618a" d="M 199.453125 104.960938 C 198.445312 104.941406 197.734375 105.070312 196.984375 105.234375 L 196.984375 105.371094 L 197.121094 105.371094 C 197.601562 106.355469 198.445312 106.992188 199.039062 107.839844 L 200.414062 110.71875 L 200.550781 110.578125 C 201.398438 109.980469 201.789062 109.023438 201.785156 107.5625 C 201.441406 107.207031 201.394531 106.757812 201.097656 106.328125 C 200.703125 105.757812 199.933594 105.4375 199.449219 104.957031 Z M 199.453125 104.960938 " fill-opacity="1" fill-rule="evenodd"/><path fill="#e48e00" d="M 257.5625 196.683594 C 257.5625 200.132812 260.292969 202.460938 263.347656 202.460938 C 266.398438 202.460938 269.128906 200.132812 269.128906 196.683594 C 269.128906 193.230469 266.398438 190.902344 263.347656 190.902344 C 260.292969 190.902344 257.5625 193.230469 257.5625 196.683594 Z M 267.835938 196.683594 C 267.835938 199.300781 265.828125 201.257812 263.34375 201.257812 C 260.832031 201.257812 258.851562 199.300781 258.851562 196.683594 C 258.851562 194.0625 260.828125 192.105469 263.34375 192.105469 C 265.828125 192.105469 267.835938 194.0625 267.835938 196.683594 Z M 264.902344 199.980469 L 266.199219 199.980469 L 264.300781 197.082031 C 265.320312 196.976562 266.089844 196.480469 266.089844 195.28125 C 266.089844 193.9375 265.238281 193.386719 263.605469 193.386719 L 261.03125 193.386719 L 261.03125 199.980469 L 262.140625 199.980469 L 262.140625 197.128906 L 263.175781 197.128906 Z M 262.140625 196.203125 L 262.140625 194.308594 L 263.421875 194.308594 C 264.082031 194.308594 264.886719 194.429688 264.886719 195.203125 C 264.886719 196.128906 264.160156 196.207031 263.328125 196.207031 L 262.140625 196.207031 Z M 262.140625 196.203125 " fill-opacity="1" fill-rule="evenodd"/></svg>