<svg xmlns="http://www.w3.org/2000/svg" xmlns:xlink="http://www.w3.org/1999/xlink" width="400" zoomAndPan="magnify" viewBox="0 0 300 299.999988" height="400" preserveAspectRatio="xMidYMid meet" version="1.0"><defs><clipPath id="b9ddef42f2"><path d="M 18.109375 81.417969 L 282.109375 81.417969 L 282.109375 218.667969 L 18.109375 218.667969 Z M 18.109375 81.417969 " clip-rule="nonzero"/></clipPath><clipPath id="07ad7ffeb5"><path d="M 18.109375 150.0625 C 18.109375 187.878906 77.207031 218.539062 150.105469 218.539062 C 223 218.539062 282.101562 187.878906 282.101562 150.0625 C 282.101562 112.246094 223 81.585938 150.105469 81.585938 C 77.207031 81.585938 18.109375 112.246094 18.109375 150.0625 " clip-rule="nonzero"/></clipPath><clipPath id="037228b9a9"><path d="M 18.109375 150.0625 C 18.109375 187.878906 77.207031 218.539062 150.105469 218.539062 C 223 218.539062 282.101562 187.878906 282.101562 150.0625 C 282.101562 112.246094 223 81.585938 150.105469 81.585938 C 77.207031 81.585938 18.109375 112.246094 18.109375 150.0625 " clip-rule="nonzero"/></clipPath><radialGradient gradientTransform="matrix(1.006956, 0, 0, 0.993044, 97.359636, 105.659446)" gradientUnits="userSpaceOnUse" r="172.133798" cx="0" id="6498ad323f" cy="0" fx="0" fy="0"><stop stop-opacity="1" stop-color="rgb(68.199158%, 69.799805%, 83.499146%)" offset="0"/><stop stop-opacity="1" stop-color="rgb(68.199158%, 69.799805%, 83.499146%)" offset="0.25"/><stop stop-opacity="1" stop-color="rgb(68.164062%, 69.764709%, 83.473206%)" offset="0.296875"/><stop stop-opacity="1" stop-color="rgb(67.956543%, 69.555664%, 83.317566%)" offset="0.300781"/><stop stop-opacity="1" stop-color="rgb(67.608643%, 69.20929%, 83.059692%)" offset="0.304688"/><stop stop-opacity="1" stop-color="rgb(67.260742%, 68.861389%, 82.800293%)" offset="0.308594"/><stop stop-opacity="1" stop-color="rgb(66.914368%, 68.513489%, 82.542419%)" offset="0.3125"/><stop stop-opacity="1" stop-color="rgb(66.566467%, 68.167114%, 82.28302%)" offset="0.316406"/><stop stop-opacity="1" stop-color="rgb(66.220093%, 67.819214%, 82.025146%)" offset="0.320312"/><stop stop-opacity="1" stop-color="rgb(65.872192%, 67.472839%, 81.765747%)" offset="0.324219"/><stop stop-opacity="1" stop-color="rgb(65.525818%, 67.124939%, 81.506348%)" offset="0.328125"/><stop stop-opacity="1" stop-color="rgb(65.177917%, 66.778564%, 81.248474%)" offset="0.332031"/><stop stop-opacity="1" stop-color="rgb(64.831543%, 66.430664%, 80.989075%)" offset="0.335938"/><stop stop-opacity="1" stop-color="rgb(64.483643%, 66.08429%, 80.731201%)" offset="0.339844"/><stop stop-opacity="1" stop-color="rgb(64.135742%, 65.736389%, 80.471802%)" offset="0.34375"/><stop stop-opacity="1" stop-color="rgb(63.789368%, 65.388489%, 80.213928%)" offset="0.347656"/><stop stop-opacity="1" stop-color="rgb(63.441467%, 65.042114%, 79.954529%)" offset="0.351562"/><stop stop-opacity="1" stop-color="rgb(63.095093%, 64.694214%, 79.696655%)" offset="0.355469"/><stop stop-opacity="1" stop-color="rgb(62.747192%, 64.347839%, 79.437256%)" offset="0.359375"/><stop stop-opacity="1" stop-color="rgb(62.400818%, 63.999939%, 79.179382%)" offset="0.363281"/><stop stop-opacity="1" stop-color="rgb(62.052917%, 63.653564%, 78.919983%)" offset="0.367188"/><stop stop-opacity="1" stop-color="rgb(61.706543%, 63.305664%, 78.662109%)" offset="0.371094"/><stop stop-opacity="1" stop-color="rgb(61.358643%, 62.95929%, 78.40271%)" offset="0.375"/><stop stop-opacity="1" stop-color="rgb(61.010742%, 62.611389%, 78.144836%)" offset="0.378906"/><stop stop-opacity="1" stop-color="rgb(60.664368%, 62.263489%, 77.885437%)" offset="0.382812"/><stop stop-opacity="1" stop-color="rgb(60.316467%, 61.917114%, 77.627563%)" offset="0.386719"/><stop stop-opacity="1" stop-color="rgb(59.970093%, 61.569214%, 77.368164%)" offset="0.390625"/><stop stop-opacity="1" stop-color="rgb(59.622192%, 61.222839%, 77.108765%)" offset="0.394531"/><stop stop-opacity="1" stop-color="rgb(59.275818%, 60.874939%, 76.850891%)" offset="0.398438"/><stop stop-opacity="1" stop-color="rgb(58.927917%, 60.528564%, 76.591492%)" offset="0.402344"/><stop stop-opacity="1" stop-color="rgb(58.581543%, 60.180664%, 76.333618%)" offset="0.40625"/><stop stop-opacity="1" stop-color="rgb(58.233643%, 59.83429%, 76.074219%)" offset="0.410156"/><stop stop-opacity="1" stop-color="rgb(57.885742%, 59.486389%, 75.816345%)" offset="0.414062"/><stop stop-opacity="1" stop-color="rgb(57.539368%, 59.138489%, 75.556946%)" offset="0.417969"/><stop stop-opacity="1" stop-color="rgb(57.191467%, 58.792114%, 75.299072%)" offset="0.421875"/><stop stop-opacity="1" stop-color="rgb(56.845093%, 58.444214%, 75.039673%)" offset="0.425781"/><stop stop-opacity="1" stop-color="rgb(56.497192%, 58.097839%, 74.781799%)" offset="0.429688"/><stop stop-opacity="1" stop-color="rgb(56.150818%, 57.749939%, 74.5224%)" offset="0.433594"/><stop stop-opacity="1" stop-color="rgb(55.802917%, 57.403564%, 74.264526%)" offset="0.4375"/><stop stop-opacity="1" stop-color="rgb(55.456543%, 57.055664%, 74.005127%)" offset="0.441406"/><stop stop-opacity="1" stop-color="rgb(55.108643%, 56.70929%, 73.747253%)" offset="0.445312"/><stop stop-opacity="1" stop-color="rgb(54.760742%, 56.361389%, 73.487854%)" offset="0.449219"/><stop stop-opacity="1" stop-color="rgb(54.414368%, 56.013489%, 73.22998%)" offset="0.453125"/><stop stop-opacity="1" stop-color="rgb(54.066467%, 55.667114%, 72.970581%)" offset="0.457031"/><stop stop-opacity="1" stop-color="rgb(53.720093%, 55.319214%, 72.711182%)" offset="0.460938"/><stop stop-opacity="1" stop-color="rgb(53.372192%, 54.972839%, 72.453308%)" offset="0.464844"/><stop stop-opacity="1" stop-color="rgb(53.025818%, 54.624939%, 72.193909%)" offset="0.46875"/><stop stop-opacity="1" stop-color="rgb(52.677917%, 54.278564%, 71.936035%)" offset="0.472656"/><stop stop-opacity="1" stop-color="rgb(52.331543%, 53.930664%, 71.676636%)" offset="0.476562"/><stop stop-opacity="1" stop-color="rgb(51.983643%, 53.58429%, 71.418762%)" offset="0.480469"/><stop stop-opacity="1" stop-color="rgb(51.635742%, 53.236389%, 71.159363%)" offset="0.484375"/><stop stop-opacity="1" stop-color="rgb(51.289368%, 52.888489%, 70.901489%)" offset="0.488281"/><stop stop-opacity="1" stop-color="rgb(50.941467%, 52.542114%, 70.64209%)" offset="0.492188"/><stop stop-opacity="1" stop-color="rgb(50.595093%, 52.194214%, 70.384216%)" offset="0.496094"/><stop stop-opacity="1" stop-color="rgb(50.247192%, 51.847839%, 70.124817%)" offset="0.5"/><stop stop-opacity="1" stop-color="rgb(49.900818%, 51.499939%, 69.866943%)" offset="0.503906"/><stop stop-opacity="1" stop-color="rgb(49.552917%, 51.153564%, 69.607544%)" offset="0.507812"/><stop stop-opacity="1" stop-color="rgb(49.206543%, 50.805664%, 69.34967%)" offset="0.511719"/><stop stop-opacity="1" stop-color="rgb(48.858643%, 50.45929%, 69.090271%)" offset="0.515625"/><stop stop-opacity="1" stop-color="rgb(48.510742%, 50.111389%, 68.832397%)" offset="0.519531"/><stop stop-opacity="1" stop-color="rgb(48.164368%, 49.763489%, 68.572998%)" offset="0.523438"/><stop stop-opacity="1" stop-color="rgb(47.816467%, 49.417114%, 68.313599%)" offset="0.527344"/><stop stop-opacity="1" stop-color="rgb(47.470093%, 49.069214%, 68.055725%)" offset="0.53125"/><stop stop-opacity="1" stop-color="rgb(47.122192%, 48.722839%, 67.796326%)" offset="0.535156"/><stop stop-opacity="1" stop-color="rgb(46.775818%, 48.374939%, 67.538452%)" offset="0.539062"/><stop stop-opacity="1" stop-color="rgb(46.427917%, 48.028564%, 67.279053%)" offset="0.542969"/><stop stop-opacity="1" stop-color="rgb(46.081543%, 47.680664%, 67.021179%)" offset="0.546875"/><stop stop-opacity="1" stop-color="rgb(45.733643%, 47.33429%, 66.76178%)" offset="0.550781"/><stop stop-opacity="1" stop-color="rgb(45.385742%, 46.986389%, 66.503906%)" offset="0.554688"/><stop stop-opacity="1" stop-color="rgb(45.039368%, 46.638489%, 66.244507%)" offset="0.558594"/><stop stop-opacity="1" stop-color="rgb(44.691467%, 46.292114%, 65.986633%)" offset="0.5625"/><stop stop-opacity="1" stop-color="rgb(44.345093%, 45.944214%, 65.727234%)" offset="0.566406"/><stop stop-opacity="1" stop-color="rgb(43.997192%, 45.597839%, 65.46936%)" offset="0.570312"/><stop stop-opacity="1" stop-color="rgb(43.650818%, 45.249939%, 65.209961%)" offset="0.574219"/><stop stop-opacity="1" stop-color="rgb(43.302917%, 44.903564%, 64.952087%)" offset="0.578125"/><stop stop-opacity="1" stop-color="rgb(42.956543%, 44.555664%, 64.692688%)" offset="0.582031"/><stop stop-opacity="1" stop-color="rgb(42.608643%, 44.20929%, 64.434814%)" offset="0.585938"/><stop stop-opacity="1" stop-color="rgb(42.260742%, 43.861389%, 64.175415%)" offset="0.589844"/><stop stop-opacity="1" stop-color="rgb(41.914368%, 43.513489%, 63.916016%)" offset="0.59375"/><stop stop-opacity="1" stop-color="rgb(41.566467%, 43.167114%, 63.658142%)" offset="0.597656"/><stop stop-opacity="1" stop-color="rgb(41.220093%, 42.819214%, 63.398743%)" offset="0.601562"/><stop stop-opacity="1" stop-color="rgb(40.872192%, 42.472839%, 63.140869%)" offset="0.605469"/><stop stop-opacity="1" stop-color="rgb(40.525818%, 42.124939%, 62.88147%)" offset="0.609375"/><stop stop-opacity="1" stop-color="rgb(40.177917%, 41.778564%, 62.623596%)" offset="0.613281"/><stop stop-opacity="1" stop-color="rgb(39.831543%, 41.430664%, 62.364197%)" offset="0.617188"/><stop stop-opacity="1" stop-color="rgb(39.483643%, 41.08429%, 62.106323%)" offset="0.621094"/><stop stop-opacity="1" stop-color="rgb(39.135742%, 40.736389%, 61.846924%)" offset="0.625"/><stop stop-opacity="1" stop-color="rgb(38.789368%, 40.388489%, 61.58905%)" offset="0.628906"/><stop stop-opacity="1" stop-color="rgb(38.441467%, 40.042114%, 61.329651%)" offset="0.632812"/><stop stop-opacity="1" stop-color="rgb(38.095093%, 39.694214%, 61.071777%)" offset="0.636719"/><stop stop-opacity="1" stop-color="rgb(37.747192%, 39.347839%, 60.812378%)" offset="0.640625"/><stop stop-opacity="1" stop-color="rgb(37.400818%, 38.999939%, 60.554504%)" offset="0.644531"/><stop stop-opacity="1" stop-color="rgb(37.052917%, 38.653564%, 60.295105%)" offset="0.648438"/><stop stop-opacity="1" stop-color="rgb(36.706543%, 38.305664%, 60.037231%)" offset="0.652344"/><stop stop-opacity="1" stop-color="rgb(36.358643%, 37.95929%, 59.777832%)" offset="0.65625"/><stop stop-opacity="1" stop-color="rgb(36.010742%, 37.611389%, 59.518433%)" offset="0.660156"/><stop stop-opacity="1" stop-color="rgb(35.664368%, 37.263489%, 59.260559%)" offset="0.664062"/><stop stop-opacity="1" stop-color="rgb(35.316467%, 36.917114%, 59.00116%)" offset="0.667969"/><stop stop-opacity="1" stop-color="rgb(34.970093%, 36.569214%, 58.743286%)" offset="0.671875"/><stop stop-opacity="1" stop-color="rgb(34.622192%, 36.222839%, 58.483887%)" offset="0.675781"/><stop stop-opacity="1" stop-color="rgb(34.275818%, 35.874939%, 58.226013%)" offset="0.679688"/><stop stop-opacity="1" stop-color="rgb(33.927917%, 35.528564%, 57.966614%)" offset="0.683594"/><stop stop-opacity="1" stop-color="rgb(33.581543%, 35.180664%, 57.70874%)" offset="0.6875"/><stop stop-opacity="1" stop-color="rgb(33.233643%, 34.83429%, 57.449341%)" offset="0.691406"/><stop stop-opacity="1" stop-color="rgb(32.885742%, 34.486389%, 57.191467%)" offset="0.695312"/><stop stop-opacity="1" stop-color="rgb(32.539368%, 34.138489%, 56.932068%)" offset="0.699219"/><stop stop-opacity="1" stop-color="rgb(32.191467%, 33.792114%, 56.674194%)" offset="0.703125"/><stop stop-opacity="1" stop-color="rgb(31.845093%, 33.444214%, 56.414795%)" offset="0.707031"/><stop stop-opacity="1" stop-color="rgb(31.497192%, 33.097839%, 56.156921%)" offset="0.710938"/><stop stop-opacity="1" stop-color="rgb(31.150818%, 32.749939%, 55.897522%)" offset="0.714844"/><stop stop-opacity="1" stop-color="rgb(30.802917%, 32.403564%, 55.639648%)" offset="0.71875"/><stop stop-opacity="1" stop-color="rgb(30.456543%, 32.055664%, 55.380249%)" offset="0.722656"/><stop stop-opacity="1" stop-color="rgb(30.108643%, 31.70929%, 55.122375%)" offset="0.726562"/><stop stop-opacity="1" stop-color="rgb(29.760742%, 31.361389%, 54.862976%)" offset="0.730469"/><stop stop-opacity="1" stop-color="rgb(29.414368%, 31.013489%, 54.603577%)" offset="0.734375"/><stop stop-opacity="1" stop-color="rgb(29.066467%, 30.667114%, 54.345703%)" offset="0.738281"/><stop stop-opacity="1" stop-color="rgb(28.720093%, 30.319214%, 54.086304%)" offset="0.742188"/><stop stop-opacity="1" stop-color="rgb(28.372192%, 29.972839%, 53.82843%)" offset="0.746094"/><stop stop-opacity="1" stop-color="rgb(28.199768%, 29.798889%, 53.69873%)" offset="1"/></radialGradient></defs><g clip-path="url(#b9ddef42f2)"><g clip-path="url(#07ad7ffeb5)"><g clip-path="url(#037228b9a9)"><path fill="url(#6498ad323f)" d="M 18.109375 81.585938 L 18.109375 218.539062 L 282.101562 218.539062 L 282.101562 81.585938 Z M 18.109375 81.585938 " fill-rule="nonzero"/></g></g></g><path fill="#777bb3" d="M 150.105469 213.453125 C 220.15625 213.453125 276.945312 185.074219 276.945312 150.0625 C 276.945312 115.050781 220.15625 86.671875 150.105469 86.671875 C 80.054688 86.671875 23.265625 115.050781 23.265625 150.0625 C 23.265625 185.074219 80.054688 213.453125 150.105469 213.453125 " fill-opacity="1" fill-rule="nonzero"/><path fill="#000000" d="M 89.820312 157.921875 C 95.582031 157.921875 99.882812 156.871094 102.601562 154.808594 C 105.292969 152.765625 107.152344 149.222656 108.125 144.285156 C 109.035156 139.667969 108.6875 136.445312 107.097656 134.703125 C 105.472656 132.925781 101.957031 132.027344 96.644531 132.027344 L 87.441406 132.027344 L 82.339844 157.921875 Z M 59.714844 189.820312 C 59.289062 189.820312 58.882812 189.632812 58.609375 189.304688 C 58.324219 188.964844 58.222656 188.574219 58.308594 188.136719 L 71.835938 119.515625 C 71.898438 119.183594 72.066406 118.910156 72.328125 118.695312 C 72.59375 118.480469 72.898438 118.375 73.238281 118.375 L 102.386719 118.375 C 111.550781 118.375 118.367188 120.820312 122.652344 125.664062 C 126.960938 130.527344 128.292969 137.328125 126.609375 145.871094 C 125.921875 149.355469 124.742188 152.585938 123.101562 155.480469 C 121.460938 158.378906 119.292969 161.0625 116.652344 163.453125 C 113.496094 166.367188 109.921875 168.484375 106.039062 169.726562 C 102.21875 170.953125 97.308594 171.578125 91.453125 171.578125 L 79.652344 171.578125 L 76.28125 188.679688 C 76.214844 189.011719 76.050781 189.285156 75.785156 189.5 C 75.519531 189.714844 75.21875 189.820312 74.875 189.820312 L 59.710938 189.820312 Z M 59.714844 189.820312 " fill-opacity="1" fill-rule="nonzero"/><path fill="#ffffff" d="M 88.621094 133.4375 L 96.648438 133.4375 C 103.054688 133.4375 105.28125 134.824219 106.035156 135.652344 C 107.292969 137.023438 107.527344 139.914062 106.722656 144.015625 C 105.816406 148.605469 104.136719 151.859375 101.730469 153.6875 C 99.265625 155.558594 95.257812 156.507812 89.820312 156.507812 L 84.078125 156.507812 L 88.625 133.4375 Z M 102.386719 116.960938 L 73.242188 116.960938 C 72.90625 116.960938 72.585938 117.015625 72.273438 117.125 C 71.960938 117.234375 71.675781 117.394531 71.417969 117.605469 C 71.164062 117.8125 70.949219 118.058594 70.777344 118.339844 C 70.609375 118.621094 70.492188 118.921875 70.429688 119.246094 L 56.90625 187.871094 C 56.863281 188.078125 56.847656 188.28125 56.855469 188.492188 C 56.859375 188.699219 56.890625 188.90625 56.941406 189.105469 C 56.992188 189.308594 57.066406 189.503906 57.164062 189.6875 C 57.257812 189.875 57.371094 190.046875 57.507812 190.207031 C 57.640625 190.367188 57.792969 190.511719 57.957031 190.640625 C 58.125 190.769531 58.304688 190.875 58.496094 190.964844 C 58.6875 191.054688 58.882812 191.121094 59.089844 191.167969 C 59.296875 191.210938 59.503906 191.234375 59.714844 191.234375 L 74.875 191.234375 C 75.207031 191.234375 75.53125 191.179688 75.84375 191.070312 C 76.15625 190.957031 76.441406 190.800781 76.695312 190.589844 C 76.953125 190.382812 77.167969 190.136719 77.335938 189.855469 C 77.507812 189.574219 77.625 189.269531 77.6875 188.949219 L 80.832031 172.992188 L 91.453125 172.992188 C 97.460938 172.992188 102.519531 172.34375 106.484375 171.070312 C 110.5625 169.765625 114.3125 167.550781 117.632812 164.488281 C 120.378906 161.996094 122.644531 159.199219 124.355469 156.175781 C 126.0625 153.148438 127.300781 149.773438 128.015625 146.144531 C 129.789062 137.148438 128.347656 129.949219 123.734375 124.738281 C 119.164062 119.578125 111.984375 116.964844 102.390625 116.964844 M 80.605469 159.335938 L 89.824219 159.335938 C 95.933594 159.335938 100.488281 158.203125 103.480469 155.929688 C 106.46875 153.660156 108.488281 149.871094 109.535156 144.558594 C 110.539062 139.457031 110.082031 135.859375 108.164062 133.761719 C 106.25 131.664062 102.410156 130.617188 96.652344 130.617188 L 86.265625 130.617188 L 80.605469 159.335938 M 102.390625 119.789062 C 111.160156 119.789062 117.554688 122.058594 121.578125 126.597656 C 125.597656 131.132812 126.808594 137.472656 125.203125 145.605469 C 124.542969 148.957031 123.425781 152.019531 121.855469 154.796875 C 120.28125 157.570312 118.226562 160.113281 115.6875 162.414062 C 112.660156 165.207031 109.296875 167.199219 105.597656 168.386719 C 101.898438 169.574219 97.183594 170.167969 91.457031 170.167969 L 78.472656 170.167969 L 74.875 188.410156 L 59.71875 188.410156 L 73.242188 119.792969 L 102.394531 119.792969 " fill-opacity="1" fill-rule="nonzero"/><path fill="#000000" d="M 161.363281 171.574219 C 160.933594 171.574219 160.527344 171.386719 160.257812 171.058594 C 159.984375 170.734375 159.875 170.308594 159.957031 169.894531 L 165.9375 139.53125 C 166.507812 136.640625 166.367188 134.570312 165.542969 133.695312 C 165.039062 133.160156 163.527344 132.261719 159.046875 132.261719 L 148.210938 132.261719 L 140.6875 170.429688 C 140.621094 170.761719 140.457031 171.035156 140.191406 171.25 C 139.929688 171.464844 139.625 171.574219 139.28125 171.574219 L 124.242188 171.574219 C 124.027344 171.574219 123.824219 171.527344 123.632812 171.4375 C 123.4375 171.347656 123.273438 171.222656 123.136719 171.058594 C 123 170.898438 122.90625 170.714844 122.855469 170.507812 C 122.800781 170.304688 122.796875 170.097656 122.835938 169.890625 L 136.359375 101.269531 C 136.425781 100.9375 136.589844 100.664062 136.855469 100.449219 C 137.121094 100.234375 137.425781 100.128906 137.765625 100.128906 L 152.804688 100.128906 C 153.019531 100.128906 153.222656 100.171875 153.417969 100.261719 C 153.609375 100.351562 153.773438 100.480469 153.910156 100.640625 C 154.046875 100.804688 154.140625 100.988281 154.195312 101.191406 C 154.246094 101.394531 154.253906 101.601562 154.210938 101.808594 L 150.949219 118.371094 L 162.609375 118.371094 C 171.488281 118.371094 177.511719 119.914062 181.023438 123.09375 C 184.601562 126.335938 185.714844 131.515625 184.339844 138.5 L 178.046875 170.433594 C 177.980469 170.761719 177.816406 171.039062 177.550781 171.253906 C 177.285156 171.46875 176.984375 171.574219 176.640625 171.574219 Z M 161.363281 171.574219 " fill-opacity="1" fill-rule="nonzero"/><path fill="#ffffff" d="M 152.808594 98.714844 L 137.769531 98.714844 C 137.4375 98.714844 137.113281 98.769531 136.800781 98.882812 C 136.488281 98.992188 136.203125 99.152344 135.945312 99.359375 C 135.691406 99.570312 135.476562 99.8125 135.304688 100.09375 C 135.136719 100.378906 135.019531 100.679688 134.957031 101 L 121.433594 169.621094 C 121.390625 169.828125 121.375 170.035156 121.378906 170.242188 C 121.386719 170.449219 121.414062 170.65625 121.46875 170.855469 C 121.519531 171.058594 121.59375 171.253906 121.6875 171.4375 C 121.785156 171.625 121.898438 171.796875 122.035156 171.957031 C 122.167969 172.121094 122.320312 172.261719 122.484375 172.390625 C 122.652344 172.519531 122.832031 172.628906 123.023438 172.714844 C 123.214844 172.804688 123.410156 172.871094 123.617188 172.917969 C 123.824219 172.964844 124.03125 172.988281 124.242188 172.988281 L 139.28125 172.988281 C 139.613281 172.988281 139.9375 172.929688 140.25 172.820312 C 140.5625 172.710938 140.847656 172.550781 141.105469 172.339844 C 141.359375 172.132812 141.574219 171.886719 141.746094 171.605469 C 141.914062 171.324219 142.03125 171.023438 142.09375 170.699219 L 149.390625 133.671875 L 159.050781 133.671875 C 163.519531 133.671875 164.457031 134.613281 164.496094 134.65625 C 164.765625 134.941406 165.121094 136.273438 164.535156 139.257812 L 158.550781 169.621094 C 158.511719 169.828125 158.496094 170.035156 158.5 170.242188 C 158.507812 170.449219 158.535156 170.65625 158.585938 170.855469 C 158.640625 171.058594 158.714844 171.253906 158.808594 171.4375 C 158.90625 171.625 159.019531 171.796875 159.152344 171.957031 C 159.289062 172.121094 159.4375 172.261719 159.605469 172.390625 C 159.773438 172.519531 159.953125 172.628906 160.140625 172.714844 C 160.332031 172.804688 160.53125 172.871094 160.738281 172.917969 C 160.945312 172.964844 161.152344 172.988281 161.363281 172.988281 L 176.640625 172.988281 C 176.972656 172.988281 177.296875 172.929688 177.609375 172.820312 C 177.921875 172.710938 178.207031 172.550781 178.464844 172.339844 C 178.71875 172.132812 178.933594 171.886719 179.101562 171.605469 C 179.273438 171.324219 179.390625 171.023438 179.453125 170.699219 L 185.746094 138.765625 C 187.222656 131.273438 185.960938 125.648438 181.992188 122.054688 C 178.207031 118.625 171.867188 116.957031 162.609375 116.957031 L 152.6875 116.957031 L 155.621094 102.078125 C 155.660156 101.875 155.679688 101.667969 155.671875 101.460938 C 155.664062 101.25 155.636719 101.046875 155.585938 100.84375 C 155.53125 100.640625 155.460938 100.449219 155.363281 100.261719 C 155.269531 100.078125 155.152344 99.902344 155.019531 99.742188 C 154.882812 99.582031 154.734375 99.4375 154.566406 99.308594 C 154.398438 99.179688 154.222656 99.074219 154.03125 98.984375 C 153.839844 98.894531 153.640625 98.828125 153.433594 98.78125 C 153.226562 98.738281 153.019531 98.714844 152.808594 98.714844 M 152.808594 101.539062 L 149.214844 119.785156 L 162.609375 119.785156 C 171.039062 119.785156 176.855469 121.234375 180.054688 124.132812 C 183.257812 127.03125 184.214844 131.730469 182.933594 138.230469 L 176.644531 170.160156 L 161.367188 170.160156 L 167.347656 139.800781 C 168.027344 136.34375 167.777344 133.988281 166.597656 132.734375 C 165.414062 131.476562 162.898438 130.847656 159.050781 130.847656 L 147.027344 130.847656 L 139.28125 170.160156 L 124.242188 170.160156 L 137.769531 101.539062 L 152.808594 101.539062 " fill-opacity="1" fill-rule="nonzero"/><path fill="#000000" d="M 208.136719 157.921875 C 213.894531 157.921875 218.195312 156.871094 220.914062 154.808594 C 223.605469 152.765625 225.464844 149.222656 226.441406 144.285156 C 227.347656 139.667969 227.003906 136.445312 225.410156 134.703125 C 223.785156 132.925781 220.269531 132.027344 214.960938 132.027344 L 205.753906 132.027344 L 200.652344 157.921875 Z M 178.027344 189.820312 C 177.601562 189.820312 177.195312 189.628906 176.921875 189.304688 C 176.636719 188.960938 176.535156 188.574219 176.621094 188.136719 L 190.144531 119.515625 C 190.210938 119.183594 190.375 118.910156 190.640625 118.695312 C 190.90625 118.480469 191.210938 118.371094 191.550781 118.371094 L 220.699219 118.371094 C 229.863281 118.371094 236.679688 120.820312 240.964844 125.664062 C 245.273438 130.527344 246.605469 137.324219 244.921875 145.871094 C 244.234375 149.351562 243.054688 152.585938 241.414062 155.480469 C 239.773438 158.378906 237.601562 161.058594 234.964844 163.453125 C 231.804688 166.367188 228.230469 168.480469 224.347656 169.726562 C 220.527344 170.953125 215.621094 171.574219 209.765625 171.574219 L 197.953125 171.574219 L 194.585938 188.675781 C 194.519531 189.007812 194.355469 189.28125 194.089844 189.496094 C 193.824219 189.710938 193.519531 189.820312 193.179688 189.820312 L 178.019531 189.820312 Z M 178.027344 189.820312 " fill-opacity="1" fill-rule="nonzero"/><path fill="#ffffff" d="M 206.9375 133.4375 L 214.960938 133.4375 C 221.367188 133.4375 223.59375 134.824219 224.351562 135.652344 C 225.605469 137.023438 225.84375 139.914062 225.035156 144.015625 C 224.128906 148.605469 222.449219 151.859375 220.042969 153.6875 C 217.578125 155.558594 213.570312 156.507812 208.136719 156.507812 L 202.390625 156.507812 Z M 220.699219 116.960938 L 191.550781 116.960938 C 191.21875 116.960938 190.898438 117.015625 190.585938 117.125 C 190.273438 117.234375 189.988281 117.394531 189.730469 117.605469 C 189.472656 117.8125 189.261719 118.058594 189.089844 118.339844 C 188.921875 118.621094 188.804688 118.921875 188.742188 119.246094 L 175.214844 187.871094 C 175.175781 188.078125 175.15625 188.28125 175.164062 188.492188 C 175.171875 188.699219 175.199219 188.90625 175.25 189.105469 C 175.304688 189.308594 175.378906 189.503906 175.472656 189.6875 C 175.566406 189.875 175.683594 190.046875 175.816406 190.207031 C 175.953125 190.367188 176.101562 190.511719 176.269531 190.640625 C 176.4375 190.769531 176.613281 190.875 176.804688 190.964844 C 176.996094 191.054688 177.195312 191.121094 177.402344 191.167969 C 177.605469 191.210938 177.816406 191.234375 178.027344 191.234375 L 193.183594 191.234375 C 193.515625 191.234375 193.839844 191.179688 194.152344 191.070312 C 194.464844 190.957031 194.75 190.800781 195.007812 190.589844 C 195.261719 190.382812 195.476562 190.136719 195.648438 189.855469 C 195.816406 189.574219 195.933594 189.269531 195.996094 188.949219 L 199.140625 172.992188 L 209.765625 172.992188 C 215.769531 172.992188 220.828125 172.34375 224.792969 171.070312 C 228.871094 169.765625 232.621094 167.550781 235.945312 164.488281 C 238.691406 161.996094 240.949219 159.199219 242.664062 156.175781 C 244.378906 153.148438 245.609375 149.773438 246.324219 146.144531 C 248.097656 137.148438 246.660156 129.945312 242.042969 124.738281 C 237.472656 119.578125 230.292969 116.964844 220.699219 116.964844 M 198.914062 159.335938 L 208.132812 159.335938 C 214.246094 159.335938 218.796875 158.203125 221.789062 155.929688 C 224.777344 153.660156 226.796875 149.871094 227.847656 144.558594 C 228.847656 139.457031 228.394531 135.859375 226.476562 133.761719 C 224.558594 131.664062 220.71875 130.617188 214.960938 130.617188 L 204.574219 130.617188 L 198.914062 159.335938 M 220.699219 119.789062 C 229.46875 119.789062 235.867188 122.058594 239.886719 126.597656 C 243.90625 131.132812 245.117188 137.472656 243.515625 145.605469 C 242.855469 148.957031 241.738281 152.019531 240.164062 154.796875 C 238.59375 157.570312 236.535156 160.113281 233.996094 162.414062 C 230.96875 165.207031 227.605469 167.199219 223.90625 168.386719 C 220.207031 169.574219 215.496094 170.167969 209.765625 170.167969 L 196.78125 170.167969 L 193.1875 188.410156 L 178.027344 188.410156 L 191.550781 119.789062 L 220.699219 119.789062 " fill-opacity="1" fill-rule="nonzero"/></svg>