<svg xmlns="http://www.w3.org/2000/svg" xmlns:xlink="http://www.w3.org/1999/xlink" width="400" zoomAndPan="magnify" viewBox="0 0 300 299.999988" height="400" preserveAspectRatio="xMidYMid meet" version="1.0"><defs><clipPath id="ada14c9967"><path d="M 57.613281 67 L 242 67 L 242 233 L 57.613281 233 Z M 57.613281 67 " clip-rule="nonzero"/></clipPath></defs><rect x="-30" width="360" fill="#ffffff" y="-29.999999" height="359.999986" fill-opacity="1"/><rect x="-30" width="360" fill="#ffffff" y="-29.999999" height="359.999986" fill-opacity="1"/><rect x="-30" width="360" fill="#ffffff" y="-29.999999" height="359.999986" fill-opacity="1"/><g clip-path="url(#ada14c9967)"><path fill="#00d8ff" d="M 209.183594 121.136719 C 207.277344 120.476562 205.300781 119.855469 203.257812 119.265625 C 203.597656 117.894531 203.90625 116.542969 204.179688 115.214844 C 208.660156 93.402344 205.734375 75.832031 195.714844 70.046875 C 186.105469 64.5 170.398438 70.285156 154.53125 84.113281 C 153.007812 85.441406 151.476562 86.847656 149.953125 88.324219 C 148.929688 87.347656 147.917969 86.40625 146.902344 85.503906 C 130.273438 70.71875 113.609375 64.484375 103.601562 70.289062 C 94.003906 75.851562 91.164062 92.371094 95.203125 113.042969 C 95.59375 115.039062 96.046875 117.078125 96.5625 119.152344 C 94.203125 119.820312 91.925781 120.535156 89.75 121.296875 C 70.253906 128.101562 57.808594 138.769531 57.808594 149.835938 C 57.808594 161.261719 71.171875 172.726562 91.472656 179.679688 C 93.074219 180.226562 94.738281 180.746094 96.453125 181.234375 C 95.894531 183.472656 95.414062 185.671875 95.007812 187.816406 C 91.15625 208.128906 94.164062 224.257812 103.734375 229.78125 C 113.617188 235.496094 130.210938 229.625 146.363281 215.484375 C 147.644531 214.367188 148.921875 213.179688 150.203125 211.941406 C 151.871094 213.539062 153.53125 215.058594 155.179688 216.484375 C 170.828125 229.96875 186.285156 235.414062 195.84375 229.875 C 205.71875 224.148438 208.933594 206.820312 204.761719 185.742188 C 204.445312 184.128906 204.070312 182.488281 203.660156 180.816406 C 204.828125 180.472656 205.96875 180.109375 207.085938 179.742188 C 228.195312 172.734375 241.921875 161.417969 241.921875 149.835938 C 241.921875 138.730469 229.070312 127.992188 209.183594 121.136719 Z M 204.609375 172.265625 C 203.605469 172.597656 202.570312 172.921875 201.519531 173.230469 C 199.1875 165.847656 196.046875 157.988281 192.191406 149.871094 C 195.867188 141.949219 198.886719 134.195312 201.152344 126.855469 C 203.035156 127.398438 204.863281 127.976562 206.625 128.582031 C 223.664062 134.457031 234.054688 143.144531 234.054688 149.835938 C 234.054688 156.960938 222.835938 166.214844 204.609375 172.265625 Z M 197.042969 187.269531 C 198.894531 196.589844 199.152344 205.019531 197.929688 211.609375 C 196.835938 217.53125 194.628906 221.476562 191.902344 223.054688 C 186.097656 226.417969 173.691406 222.046875 160.316406 210.515625 C 158.777344 209.1875 157.230469 207.777344 155.683594 206.285156 C 160.867188 200.601562 166.054688 194 171.117188 186.660156 C 180.015625 185.875 188.421875 184.578125 196.050781 182.8125 C 196.425781 184.332031 196.757812 185.816406 197.042969 187.269531 Z M 120.578125 222.472656 C 114.910156 224.480469 110.394531 224.539062 107.664062 222.960938 C 101.859375 219.605469 99.445312 206.652344 102.738281 189.289062 C 103.113281 187.300781 103.5625 185.253906 104.082031 183.164062 C 111.621094 184.835938 119.972656 186.039062 128.890625 186.757812 C 133.988281 193.941406 139.324219 200.539062 144.695312 206.316406 C 143.523438 207.453125 142.351562 208.535156 141.1875 209.550781 C 134.046875 215.808594 126.886719 220.246094 120.578125 222.472656 Z M 94.019531 172.222656 C 85.042969 169.148438 77.628906 165.15625 72.546875 160.792969 C 67.980469 156.882812 65.675781 152.992188 65.675781 149.835938 C 65.675781 143.125 75.671875 134.554688 92.339844 128.734375 C 94.363281 128.027344 96.480469 127.363281 98.679688 126.738281 C 100.980469 134.242188 104.003906 142.09375 107.652344 150.023438 C 103.957031 158.078125 100.890625 166.050781 98.566406 173.648438 C 97 173.195312 95.480469 172.71875 94.019531 172.222656 Z M 102.921875 111.527344 C 99.464844 93.820312 101.761719 80.457031 107.542969 77.105469 C 113.703125 73.535156 127.324219 78.625 141.675781 91.394531 C 142.597656 92.210938 143.515625 93.0625 144.445312 93.945312 C 139.09375 99.699219 133.808594 106.25 128.757812 113.386719 C 120.097656 114.191406 111.808594 115.480469 104.1875 117.210938 C 103.710938 115.28125 103.285156 113.382812 102.921875 111.527344 Z M 182.339844 131.167969 C 180.519531 128.019531 178.648438 124.941406 176.742188 121.949219 C 182.617188 122.691406 188.242188 123.679688 193.527344 124.886719 C 191.945312 129.980469 189.96875 135.304688 187.636719 140.769531 C 185.96875 137.589844 184.199219 134.386719 182.339844 131.167969 Z M 149.953125 99.578125 C 153.585938 103.511719 157.214844 107.90625 160.789062 112.675781 C 157.1875 112.507812 153.539062 112.417969 149.867188 112.417969 C 146.226562 112.417969 142.609375 112.503906 139.027344 112.671875 C 142.601562 107.945312 146.269531 103.558594 149.953125 99.578125 Z M 117.359375 131.222656 C 115.539062 134.382812 113.804688 137.570312 112.160156 140.761719 C 109.871094 135.320312 107.910156 129.96875 106.3125 124.804688 C 111.566406 123.625 117.167969 122.664062 123.003906 121.933594 C 121.070312 124.953125 119.183594 128.054688 117.359375 131.222656 Z M 123.171875 178.296875 C 117.140625 177.625 111.453125 176.710938 106.203125 175.566406 C 107.828125 170.308594 109.832031 164.847656 112.171875 159.285156 C 113.820312 162.476562 115.558594 165.660156 117.390625 168.832031 C 119.257812 172.058594 121.1875 175.210938 123.171875 178.296875 Z M 150.167969 200.648438 C 146.441406 196.621094 142.722656 192.160156 139.09375 187.371094 C 142.617188 187.507812 146.210938 187.582031 149.867188 187.582031 C 153.621094 187.582031 157.332031 187.492188 160.976562 187.335938 C 157.394531 192.210938 153.769531 196.675781 150.167969 200.648438 Z M 187.710938 159.003906 C 190.171875 164.625 192.25 170.054688 193.894531 175.226562 C 188.558594 176.445312 182.789062 177.425781 176.722656 178.160156 C 178.632812 175.125 180.519531 171.992188 182.375 168.773438 C 184.25 165.515625 186.027344 162.253906 187.710938 159.003906 Z M 175.554688 164.839844 C 172.679688 169.839844 169.722656 174.609375 166.722656 179.109375 C 161.265625 179.5 155.621094 179.699219 149.867188 179.699219 C 144.132812 179.699219 138.558594 179.527344 133.195312 179.175781 C 130.074219 174.613281 127.054688 169.832031 124.195312 164.882812 L 124.199219 164.882812 C 121.34375 159.949219 118.71875 154.972656 116.339844 150.023438 C 118.71875 145.066406 121.339844 140.082031 124.171875 135.160156 C 127.015625 130.222656 130.007812 125.460938 133.101562 120.925781 C 138.574219 120.511719 144.191406 120.292969 149.867188 120.292969 C 155.570312 120.292969 161.1875 120.511719 166.660156 120.929688 C 169.707031 125.433594 172.679688 130.179688 175.535156 135.117188 C 178.417969 140.113281 181.070312 145.0625 183.46875 149.914062 C 181.078125 154.851562 178.433594 159.847656 175.554688 164.839844 Z M 191.78125 76.871094 C 197.953125 80.429688 200.347656 94.792969 196.46875 113.625 C 196.226562 114.824219 195.945312 116.050781 195.644531 117.289062 C 188.003906 115.523438 179.710938 114.210938 171.03125 113.394531 C 165.96875 106.179688 160.726562 99.621094 155.460938 93.941406 C 156.878906 92.578125 158.296875 91.277344 159.699219 90.050781 C 173.289062 78.203125 186 73.527344 191.78125 76.871094 Z M 149.867188 133.367188 C 158.941406 133.367188 166.308594 140.738281 166.308594 149.835938 C 166.308594 158.925781 158.941406 166.300781 149.867188 166.300781 C 140.789062 166.300781 133.425781 158.925781 133.425781 149.835938 C 133.425781 140.738281 140.789062 133.367188 149.867188 133.367188 Z M 149.867188 133.367188 " fill-opacity="1" fill-rule="nonzero"/></g></svg>